<mxfile host="app.diagrams.net" modified="2024-07-23T00:13:24.828Z" agent="Mozilla/5.0 (Windows NT 10.0; Win64; x64) AppleWebKit/537.36 (KHTML, like Gecko) Chrome/126.0.0.0 Safari/537.36" etag="FkMfDcT7rUor_U3EF-bV" version="24.7.3" type="device">
  <diagram name="Page-1" id="cz4k9XjqH80UWFC_A9BH">
    <mxGraphModel dx="1221" dy="759" grid="1" gridSize="10" guides="1" tooltips="1" connect="1" arrows="1" fold="1" page="1" pageScale="1" pageWidth="850" pageHeight="1100" math="0" shadow="0">
      <root>
        <mxCell id="0" />
        <mxCell id="1" parent="0" />
        <mxCell id="yzzchpUeRJ-Y-mX9OWnh-1" value="Client" style="rounded=1;whiteSpace=wrap;html=1;" vertex="1" parent="1">
          <mxGeometry x="275" y="20" width="120" height="40" as="geometry" />
        </mxCell>
        <mxCell id="yzzchpUeRJ-Y-mX9OWnh-2" value="interface&lt;div&gt;IDrink&lt;/div&gt;&lt;div&gt;__________________&lt;/div&gt;&lt;div&gt;+ getCost()&lt;/div&gt;&lt;div&gt;+ getDescription()&lt;/div&gt;" style="rounded=1;whiteSpace=wrap;html=1;" vertex="1" parent="1">
          <mxGeometry x="275" y="100" width="120" height="120" as="geometry" />
        </mxCell>
        <mxCell id="yzzchpUeRJ-Y-mX9OWnh-3" value="BasicDrink&lt;div&gt;____________________________&lt;/div&gt;&lt;div&gt;- description : string&lt;/div&gt;&lt;div&gt;- cost : double&lt;/div&gt;&lt;div&gt;____________________________&lt;/div&gt;&lt;div&gt;+ BasicDrink(description, cost)&lt;/div&gt;&lt;div&gt;+ getCost()&lt;/div&gt;&lt;div&gt;+ getDescription()&lt;/div&gt;" style="rounded=1;whiteSpace=wrap;html=1;" vertex="1" parent="1">
          <mxGeometry x="110" y="280" width="190" height="130" as="geometry" />
        </mxCell>
        <mxCell id="yzzchpUeRJ-Y-mX9OWnh-4" value="" style="endArrow=classic;html=1;rounded=0;exitX=0.5;exitY=1;exitDx=0;exitDy=0;entryX=0.5;entryY=0;entryDx=0;entryDy=0;" edge="1" parent="1" source="yzzchpUeRJ-Y-mX9OWnh-1" target="yzzchpUeRJ-Y-mX9OWnh-2">
          <mxGeometry width="50" height="50" relative="1" as="geometry">
            <mxPoint x="175" y="130" as="sourcePoint" />
            <mxPoint x="225" y="80" as="targetPoint" />
          </mxGeometry>
        </mxCell>
        <mxCell id="yzzchpUeRJ-Y-mX9OWnh-5" value="DrinkDecorator&lt;div&gt;_______________________&lt;/div&gt;&lt;div&gt;- decoratedDrink: IDrink&lt;/div&gt;&lt;div&gt;_______________________&lt;/div&gt;&lt;div&gt;+ DrinkDecorator(s: IDrink)&lt;/div&gt;&lt;div&gt;+ getCost()&lt;/div&gt;&lt;div&gt;+ getDescription()&lt;/div&gt;" style="rounded=1;whiteSpace=wrap;html=1;" vertex="1" parent="1">
          <mxGeometry x="358" y="280" width="152" height="110" as="geometry" />
        </mxCell>
        <mxCell id="yzzchpUeRJ-Y-mX9OWnh-6" value="" style="endArrow=none;dashed=1;html=1;dashPattern=1 3;strokeWidth=2;rounded=0;exitX=0.5;exitY=0;exitDx=0;exitDy=0;" edge="1" parent="1" source="yzzchpUeRJ-Y-mX9OWnh-3">
          <mxGeometry width="50" height="50" relative="1" as="geometry">
            <mxPoint x="190" y="260" as="sourcePoint" />
            <mxPoint x="205" y="260" as="targetPoint" />
          </mxGeometry>
        </mxCell>
        <mxCell id="yzzchpUeRJ-Y-mX9OWnh-8" value="" style="endArrow=none;dashed=1;html=1;dashPattern=1 3;strokeWidth=2;rounded=0;exitX=0.5;exitY=0;exitDx=0;exitDy=0;" edge="1" parent="1">
          <mxGeometry width="50" height="50" relative="1" as="geometry">
            <mxPoint x="440" y="280" as="sourcePoint" />
            <mxPoint x="440" y="260" as="targetPoint" />
          </mxGeometry>
        </mxCell>
        <mxCell id="yzzchpUeRJ-Y-mX9OWnh-9" value="" style="endArrow=none;dashed=1;html=1;dashPattern=1 3;strokeWidth=2;rounded=0;" edge="1" parent="1">
          <mxGeometry width="50" height="50" relative="1" as="geometry">
            <mxPoint x="210" y="260" as="sourcePoint" />
            <mxPoint x="440" y="260" as="targetPoint" />
          </mxGeometry>
        </mxCell>
        <mxCell id="yzzchpUeRJ-Y-mX9OWnh-14" value="" style="triangle;whiteSpace=wrap;html=1;direction=north;" vertex="1" parent="1">
          <mxGeometry x="330" y="220" width="10" height="10" as="geometry" />
        </mxCell>
        <mxCell id="yzzchpUeRJ-Y-mX9OWnh-15" value="" style="endArrow=none;dashed=1;html=1;dashPattern=1 3;strokeWidth=2;rounded=0;exitX=0;exitY=0.5;exitDx=0;exitDy=0;" edge="1" parent="1" source="yzzchpUeRJ-Y-mX9OWnh-14">
          <mxGeometry width="50" height="50" relative="1" as="geometry">
            <mxPoint x="320" y="400" as="sourcePoint" />
            <mxPoint x="335" y="260" as="targetPoint" />
          </mxGeometry>
        </mxCell>
        <mxCell id="yzzchpUeRJ-Y-mX9OWnh-16" value="MilkDecorator&lt;div&gt;__________________&lt;/div&gt;&lt;div&gt;- drink : IDrink&lt;span style=&quot;white-space: pre;&quot;&gt;&#x9;&lt;/span&gt;&lt;/div&gt;&lt;div&gt;- cost : double&lt;/div&gt;&lt;div&gt;__________________&lt;/div&gt;&lt;div&gt;+ getCost()&lt;/div&gt;&lt;div&gt;+ getDescription()&lt;/div&gt;" style="rounded=1;whiteSpace=wrap;html=1;" vertex="1" parent="1">
          <mxGeometry x="280" y="460" width="120" height="130" as="geometry" />
        </mxCell>
        <mxCell id="yzzchpUeRJ-Y-mX9OWnh-17" value="ToppingDecorator&lt;div&gt;__________________&lt;/div&gt;&lt;div&gt;- topping : string&lt;/div&gt;&lt;div&gt;- cost : double&lt;/div&gt;&lt;div&gt;__________________&lt;/div&gt;&lt;div&gt;+ getCost()&lt;/div&gt;&lt;div&gt;+ getDescription()&lt;/div&gt;" style="rounded=1;whiteSpace=wrap;html=1;" vertex="1" parent="1">
          <mxGeometry x="420" y="460" width="120" height="110" as="geometry" />
        </mxCell>
        <mxCell id="yzzchpUeRJ-Y-mX9OWnh-18" value="WhippedCreamDecorator&lt;div&gt;______________________&lt;/div&gt;&lt;div&gt;- cost : double&lt;/div&gt;&lt;div&gt;______________________&lt;/div&gt;&lt;div&gt;+ getCost()&lt;/div&gt;&lt;div&gt;+ getDescription()&lt;/div&gt;" style="rounded=1;whiteSpace=wrap;html=1;" vertex="1" parent="1">
          <mxGeometry x="560" y="460" width="150" height="110" as="geometry" />
        </mxCell>
        <mxCell id="yzzchpUeRJ-Y-mX9OWnh-19" value="" style="endArrow=none;html=1;rounded=0;exitX=0.5;exitY=0;exitDx=0;exitDy=0;" edge="1" parent="1" source="yzzchpUeRJ-Y-mX9OWnh-16">
          <mxGeometry width="50" height="50" relative="1" as="geometry">
            <mxPoint x="680" y="300" as="sourcePoint" />
            <mxPoint x="340" y="440" as="targetPoint" />
          </mxGeometry>
        </mxCell>
        <mxCell id="yzzchpUeRJ-Y-mX9OWnh-20" value="" style="endArrow=none;html=1;rounded=0;exitX=0.5;exitY=0;exitDx=0;exitDy=0;" edge="1" parent="1">
          <mxGeometry width="50" height="50" relative="1" as="geometry">
            <mxPoint x="479.5" y="460" as="sourcePoint" />
            <mxPoint x="479.5" y="440" as="targetPoint" />
          </mxGeometry>
        </mxCell>
        <mxCell id="yzzchpUeRJ-Y-mX9OWnh-21" value="" style="endArrow=none;html=1;rounded=0;exitX=0.5;exitY=0;exitDx=0;exitDy=0;" edge="1" parent="1">
          <mxGeometry width="50" height="50" relative="1" as="geometry">
            <mxPoint x="640" y="460" as="sourcePoint" />
            <mxPoint x="640" y="440" as="targetPoint" />
          </mxGeometry>
        </mxCell>
        <mxCell id="yzzchpUeRJ-Y-mX9OWnh-22" value="" style="endArrow=none;html=1;rounded=0;" edge="1" parent="1">
          <mxGeometry width="50" height="50" relative="1" as="geometry">
            <mxPoint x="340" y="440" as="sourcePoint" />
            <mxPoint x="640" y="440" as="targetPoint" />
          </mxGeometry>
        </mxCell>
        <mxCell id="yzzchpUeRJ-Y-mX9OWnh-23" value="" style="triangle;whiteSpace=wrap;html=1;direction=north;" vertex="1" parent="1">
          <mxGeometry x="429" y="390" width="10" height="10" as="geometry" />
        </mxCell>
        <mxCell id="yzzchpUeRJ-Y-mX9OWnh-27" value="" style="endArrow=none;html=1;rounded=0;" edge="1" parent="1">
          <mxGeometry width="50" height="50" relative="1" as="geometry">
            <mxPoint x="434" y="400" as="sourcePoint" />
            <mxPoint x="434" y="440" as="targetPoint" />
          </mxGeometry>
        </mxCell>
      </root>
    </mxGraphModel>
  </diagram>
</mxfile>
